<?xml version="1.0" encoding="UTF-8" standalone="no"?>
<!-- Created with Inkscape (http://www.inkscape.org/) -->

<svg
   width="232.85603mm"
   height="232.9711mm"
   viewBox="0 0 232.85603 232.9711"
   version="1.1"
   id="svg1"
   xml:space="preserve"
   sodipodi:docname="SunSetLogo.svg"
   inkscape:version="1.4.2 (ebf0e940, 2025-05-08)"
   inkscape:export-filename="SunSetLogo.svg"
   inkscape:export-xdpi="300"
   inkscape:export-ydpi="300"
   xmlns:inkscape="http://www.inkscape.org/namespaces/inkscape"
   xmlns:sodipodi="http://sodipodi.sourceforge.net/DTD/sodipodi-0.dtd"
   xmlns="http://www.w3.org/2000/svg"
   xmlns:svg="http://www.w3.org/2000/svg"><sodipodi:namedview
     id="namedview1"
     pagecolor="#505050"
     bordercolor="#ffffff"
     borderopacity="1"
     inkscape:showpageshadow="0"
     inkscape:pageopacity="0"
     inkscape:pagecheckerboard="1"
     inkscape:deskcolor="#505050"
     inkscape:document-units="mm"
     showguides="false"
     inkscape:zoom="0.3750619"
     inkscape:cx="461.2572"
     inkscape:cy="202.63322"
     inkscape:window-width="1472"
     inkscape:window-height="811"
     inkscape:window-x="0"
     inkscape:window-y="37"
     inkscape:window-maximized="0"
     inkscape:current-layer="svg1" /><defs
     id="defs1"><inkscape:path-effect
       effect="bspline"
       id="path-effect83"
       is_visible="true"
       lpeversion="1.3"
       weight="33.333333"
       steps="2"
       helper_size="0"
       apply_no_weight="true"
       apply_with_weight="true"
       only_selected="false"
       uniform="false" /><inkscape:path-effect
       effect="powerstroke"
       message=""
       id="path-effect76"
       is_visible="true"
       lpeversion="1.3"
       scale_width="1"
       interpolator_type="CubicBezierJohan"
       interpolator_beta="0.2"
       start_linecap_type="zerowidth"
       end_linecap_type="zerowidth"
       offset_points="4,0.5"
       linejoin_type="extrp_arc"
       miter_limit="4"
       not_jump="false"
       sort_points="true" /><inkscape:path-effect
       effect="bspline"
       id="path-effect75"
       is_visible="true"
       lpeversion="1.3"
       weight="33.333333"
       steps="2"
       helper_size="0"
       apply_no_weight="true"
       apply_with_weight="true"
       only_selected="false"
       uniform="false" /><inkscape:path-effect
       effect="powerstroke"
       message=""
       id="path-effect47"
       is_visible="true"
       lpeversion="1.3"
       scale_width="1"
       interpolator_type="CubicBezierJohan"
       interpolator_beta="0.2"
       start_linecap_type="zerowidth"
       end_linecap_type="zerowidth"
       offset_points="12,0.5"
       linejoin_type="extrp_arc"
       miter_limit="4"
       not_jump="false"
       sort_points="true" /><inkscape:path-effect
       effect="bspline"
       id="path-effect46"
       is_visible="true"
       lpeversion="1.3"
       weight="33.333333"
       steps="2"
       helper_size="0"
       apply_no_weight="true"
       apply_with_weight="true"
       only_selected="false"
       uniform="false" /><inkscape:path-effect
       effect="powerstroke"
       message=""
       id="path-effect32"
       is_visible="true"
       lpeversion="1.3"
       scale_width="1"
       interpolator_type="CubicBezierJohan"
       interpolator_beta="0.2"
       start_linecap_type="zerowidth"
       end_linecap_type="zerowidth"
       offset_points="17,4.9921382"
       linejoin_type="extrp_arc"
       miter_limit="4"
       not_jump="false"
       sort_points="true" /><inkscape:path-effect
       effect="bspline"
       id="path-effect31"
       is_visible="true"
       lpeversion="1.3"
       weight="33.333333"
       steps="2"
       helper_size="0"
       apply_no_weight="true"
       apply_with_weight="true"
       only_selected="false"
       uniform="false" /><inkscape:path-effect
       effect="powerstroke"
       message=""
       id="path-effect29"
       is_visible="true"
       lpeversion="1.3"
       scale_width="1"
       interpolator_type="CubicBezierJohan"
       interpolator_beta="0.2"
       start_linecap_type="zerowidth"
       end_linecap_type="zerowidth"
       offset_points="95,4.9921382"
       linejoin_type="extrp_arc"
       miter_limit="4"
       not_jump="false"
       sort_points="true" /><inkscape:path-effect
       effect="bspline"
       id="path-effect28"
       is_visible="true"
       lpeversion="1.3"
       weight="33.333333"
       steps="2"
       helper_size="0"
       apply_no_weight="true"
       apply_with_weight="true"
       only_selected="false"
       uniform="false" /><inkscape:path-effect
       effect="powerstroke"
       message=""
       id="path-effect27"
       is_visible="true"
       lpeversion="1.3"
       scale_width="1"
       interpolator_type="CubicBezierJohan"
       interpolator_beta="0.2"
       start_linecap_type="zerowidth"
       end_linecap_type="zerowidth"
       offset_points="50,4.9921382"
       linejoin_type="extrp_arc"
       miter_limit="4"
       not_jump="false"
       sort_points="true" /><inkscape:path-effect
       effect="bspline"
       id="path-effect26"
       is_visible="true"
       lpeversion="1.3"
       weight="33.333333"
       steps="2"
       helper_size="0"
       apply_no_weight="true"
       apply_with_weight="true"
       only_selected="false"
       uniform="false" /><inkscape:path-effect
       effect="spiro"
       id="path-effect25"
       is_visible="true"
       lpeversion="1" /><inkscape:path-effect
       effect="powerstroke"
       message=""
       id="path-effect18"
       is_visible="true"
       lpeversion="1.3"
       scale_width="1"
       interpolator_type="CubicBezierJohan"
       interpolator_beta="0.2"
       start_linecap_type="zerowidth"
       end_linecap_type="zerowidth"
       offset_points="41,4.9921382"
       linejoin_type="extrp_arc"
       miter_limit="4"
       not_jump="false"
       sort_points="true" /><inkscape:path-effect
       effect="spiro"
       id="path-effect14"
       is_visible="true"
       lpeversion="1" /><inkscape:path-effect
       effect="spiro"
       id="path-effect13"
       is_visible="true"
       lpeversion="1" /><inkscape:path-effect
       effect="spiro"
       id="path-effect11"
       is_visible="true"
       lpeversion="1" /><inkscape:path-effect
       effect="fill_between_many"
       method="bsplinespiro"
       autoreverse="false"
       close="false"
       join="false"
       linkedpaths="#path18,0,1"
       id="path-effect19" /><inkscape:path-effect
       effect="fill_between_many"
       method="bsplinespiro"
       autoreverse="false"
       close="false"
       join="false"
       linkedpaths="#path31,0,1"
       id="path-effect33" /><inkscape:path-effect
       effect="fill_between_many"
       method="bsplinespiro"
       autoreverse="false"
       close="false"
       join="false"
       linkedpaths="#path46,0,1"
       id="path-effect48" /><inkscape:path-effect
       effect="spiro"
       id="path-effect11-1"
       is_visible="true"
       lpeversion="1" /><inkscape:path-effect
       effect="fill_between_many"
       method="bsplinespiro"
       autoreverse="false"
       close="false"
       join="false"
       linkedpaths="#path75,0,1"
       id="path-effect77" /></defs><g
     inkscape:groupmode="layer"
     id="layer2"
     inkscape:label="Logo Layers"
     transform="translate(-80.36647,-81.438501)"
     style="display:inline"><path
       style="display:inline;opacity:1;fill:#ffffff;fill-opacity:1;stroke:none;stroke-width:1;stroke-dasharray:none;stroke-opacity:0.9184953"
       d="m 83.208753,172.05878 c 5.863117,-25.71443 20.756497,-49.27612 41.468677,-65.60443 20.71218,-16.328314 47.09957,-25.310059 73.47223,-25.008494 35.00145,0.400233 69.44117,17.550604 90.8518,45.242594 21.41064,27.69199 29.33935,65.3399 20.9159,99.31499 -7.29704,29.43183 -26.58725,55.70232 -52.48442,71.47622 -25.89718,15.7739 -58.08984,20.86149 -87.58915,13.84221 C 140.34449,304.3026 113.89332,285.26088 97.876006,259.51355 81.858691,233.76622 76.467864,201.62294 83.208753,172.05878 Z"
       id="path11"
       inkscape:label="big c."
       transform="translate(0.24790617,-0.88163165)"
       inkscape:original-d="M 83.208753,172.05878 C 7.6392216,154.07723 159.7185,111.88522 198.14966,81.445856 236.58082,51.006496 272.77898,177.70005 309.91736,226.00344 347.05573,274.30682 158.77828,190.04033 83.208753,172.05878 Z"
       inkscape:path-effect="#path-effect11" /><path
       style="display:inline;opacity:1;fill:#f8dd65;fill-opacity:1;stroke:#000000;stroke-opacity:0;stroke-width:5.20522;stroke-dasharray:none"
       d="M 228.42957,746.2721 C 192.14685,718.64631 155.53266,683.22891 136.34424,657.1967 99.941788,607.81089 79.378096,554.49633 70.107672,485.46812 66.312337,457.20779 65.904549,404.30224 69.26522,376.17016 c 1.209059,-10.121 2.407941,-18.61146 2.664184,-18.8677 1.854723,-1.85473 76.176876,4.15356 94.749396,7.65964 19.80218,3.73822 72.19743,20.15967 101.64712,31.85771 16.58383,6.58746 81.18419,38.26714 95.25871,46.71439 7.19595,4.31887 23.30869,14.8551 35.80608,23.41386 68.55894,46.9521 105.34943,64.51438 154.05737,73.54072 7.55807,1.40062 19.69568,2.13374 35.32642,2.13374 62.89836,0 112.60442,-19.2062 158.56317,-61.26815 21.85043,-19.99776 46.67614,-49.9971 60.75141,-73.4119 l 6.8245,-11.35284 0.88732,8.48939 c 1.34577,12.8757 1.05937,52.32006 -0.50371,69.37138 -6.96602,75.99083 -41.12477,153.95383 -92.77373,211.74422 l -8.30603,9.29368 -5.50071,-10.53882 c -12.15173,-23.28146 -41.86056,-46.31629 -71.42873,-55.38247 -20.05145,-6.14817 -33.01469,-7.63034 -67.12118,-7.67441 -35.32852,-0.0457 -45.40854,1.23741 -80.57598,10.25635 -73.66049,18.89074 -158.83679,60.76829 -235.7091,115.88809 -6.17763,4.42955 -11.53011,8.05373 -11.89437,8.05373 -0.36427,0 -6.46528,-4.4184 -13.55779,-9.81867 z"
       id="path69"
       inkscape:label="yellow"
       transform="matrix(0.26458333,0,0,0.26458333,80.366471,81.438501)" /><path
       style="baseline-shift:baseline;display:inline;overflow:visible;opacity:1;vector-effect:none;fill:#ff8047;fill-opacity:1;stroke:#0a0e1c;stroke-opacity:0.137931;enable-background:accumulate;stop-color:#000000;stop-opacity:1"
       d="M 563.68236,459.74914 C 545.81343,458.69429 531.14929,455.60558 516.11775,449.73058 506.07834,445.80674 485.239,435.65669 476.17451,430.27577 464.41947,423.29767 443.93697,408.45328 423.0747,391.79249 398.48313,372.15344 367.29074,349.54386 336.71763,329.19718 297.41182,303.03882 273.748,289.12015 248.77587,277.4713 202.73406,255.994 171.87891,247.33073 130.87514,244.36804 l -13.95032,-1.00797 4.70067,-6.73222 c 24.12169,-34.54672 50.81684,-63.97475 80.42938,-88.66321 24.09622,-20.08942 60.70238,-43.02966 87.0879,-54.575983 30.09423,-13.169262 72.96214,-24.490804 108.89792,-28.760265 15.36346,-1.825304 55.75893,-2.517608 74.26755,-1.272809 57.96739,3.898601 97.65005,15.73334 149.75271,44.661427 34.76971,19.3046 56.24467,35.66484 86.73954,66.08067 32.85258,32.76742 49.84436,56.6469 72.72399,102.20297 l 3.61042,7.18877 -7.72203,15.34368 c -13.78204,27.38491 -32.75116,59.02744 -46.32198,77.27003 -9.18834,12.35143 -26.61724,30.2514 -38.9068,39.95838 -24.85055,19.62835 -53.52499,33.65802 -81.50686,39.87921 -16.62208,3.69557 -30.22824,4.7982 -46.99487,3.80842 z m 26.16307,-37.09573 c 6.50009,-0.71808 16.83246,-4.75068 23.45813,-9.15541 11.53269,-7.66693 20.06271,-19.21524 24.36108,-32.98111 1.6613,-5.32045 1.94592,-7.947 1.89893,-17.52381 -0.0485,-9.87463 -0.3291,-12.08939 -2.27344,-17.94103 -3.17605,-9.55865 -7.55764,-16.55343 -15.19509,-24.25754 -5.34413,-5.39077 -8.20503,-7.49938 -14.34257,-10.5711 -10.65426,-5.33225 -17.88852,-6.80911 -30.62073,-6.25115 -10.95107,0.4799 -17.10753,2.05718 -25.60289,6.55944 -14.17955,7.5147 -25.36663,21.92398 -29.7163,38.27545 -2.22874,8.37835 -2.01669,22.90908 0.45003,30.83933 7.6138,24.47755 26.40239,40.51136 50.85776,43.401 5.48192,0.64774 7.78615,0.59345 16.72509,-0.39407 z"
       id="path80"
       inkscape:label="red"
       transform="matrix(0.26458333,0,0,0.26458333,80.36647,81.438501)" /><path
       style="display:inline;opacity:1;fill:#76bcb9;fill-opacity:1;fill-rule:nonzero;stroke:none;stroke-width:1;stroke-dasharray:none;stroke-opacity:0.137931"
       d="m 87.691361,212.13378 c 3.525281,-2.23268 7.050561,-4.46536 11.589417,-7.22686 4.538852,-2.76151 10.091062,-6.0517 15.261522,-8.85726 5.17046,-2.80556 9.95887,-5.12632 14.52709,-7.02117 4.56822,-1.89486 8.91598,-3.3637 12.99946,-4.42129 4.08349,-1.05759 7.90247,-1.70388 10.95774,-1.98296 3.05527,-0.27908 5.34665,-0.19095 7.35901,0.0147 2.01237,0.20565 3.7456,0.52879 5.33199,0.99883 1.58639,0.47005 3.02585,1.08696 4.20096,1.6892 1.1751,0.60224 2.08578,1.18978 3.04055,1.90953 0.95477,0.71975 1.95358,1.57168 2.90835,2.54114 0.95478,0.96946 1.86546,2.0564 2.55583,2.89366 0.69037,0.83726 1.1604,1.42479 1.63044,2.01234 -0.99883,0.79319 -1.99766,1.58638 -3.48124,2.67335 -1.48357,1.08698 -3.45181,2.46768 -5.74327,3.86312 -2.29146,1.39544 -4.90599,2.80553 -7.59404,4.14221 -2.68806,1.33668 -5.44948,2.59989 -8.06408,3.70154 -2.61461,1.10166 -5.08226,2.04172 -8.12285,2.99649 -3.04059,0.95477 -6.65393,1.92421 -10.04705,2.62927 -3.39311,0.70506 -6.5658,1.14571 -9.62107,1.46886 -3.05527,0.32315 -5.99295,0.52879 -8.90134,0.57286 -2.90838,0.0441 -5.7873,-0.0734 -8.37253,-0.30847 -2.58523,-0.23502 -4.87662,-0.58754 -7.56468,-1.0429 -2.688051,-0.45535 -5.772612,-1.01351 -8.313772,-1.57168 -2.54116,-0.55818 -4.538778,-1.11633 -6.536437,-1.6745 z"
       id="path83"
       inkscape:path-effect="#path-effect83"
       inkscape:original-d="m 87.691361,212.13378 c 0,0 7.050561,-4.46536 10.575843,-6.69804 5.552426,-3.29033 11.104636,-6.58052 16.656956,-9.87078 4.7886,-2.32086 9.57701,-4.64162 14.36552,-6.96243 4.34793,-1.4689 8.69569,-2.93774 13.04353,-4.40661 3.81913,-0.64631 7.63811,-1.2926 11.45717,-1.9389 2.29148,0.0881 4.58286,0.17626 6.87429,0.2644 1.7333,0.32315 3.46653,0.6463 5.19979,0.96945 1.43952,0.61693 2.87898,1.23385 4.31847,1.85077 0.91072,0.58756 1.8214,1.1751 2.73209,1.76264 0.99885,0.85196 1.99766,1.70389 2.99649,2.55583 0.91072,1.08698 1.8214,2.17392 2.7321,3.26088 0.47004,0.58756 1.41011,1.76264 1.41011,1.76264 0,0 -1.99766,1.58638 -2.99649,2.37957 -1.96832,1.38076 -3.93656,2.76147 -5.90485,4.1422 -2.61463,1.41015 -5.22916,2.82023 -7.84374,4.23034 -2.76153,1.26325 -5.52295,2.52645 -8.28441,3.78968 -2.46775,0.94009 -4.9354,1.88015 -7.40309,2.82022 -3.61349,0.96948 -7.22683,1.93891 -10.84024,2.90836 -3.17282,0.44067 -6.34551,0.88132 -9.51826,1.32198 -2.93779,0.20565 -5.87547,0.41128 -8.8132,0.61692 -2.87904,-0.11751 -5.75796,-0.23501 -8.63694,-0.35252 -2.29148,-0.35254 -4.58287,-0.70506 -6.8743,-1.05759 -3.084681,-0.55818 -6.169242,-1.11634 -9.253862,-1.67451 -1.9977,-0.55818 -5.992977,-1.6745 -5.992977,-1.6745 z"
       sodipodi:nodetypes="ccccccccccccccccccccccccc"
       inkscape:label="blue"
       transform="translate(80.36647,81.438501)" /><circle
       style="display:inline;opacity:1;fill:none;fill-opacity:0.85893399;stroke:#ffffff;stroke-width:1;stroke-dasharray:none;stroke-opacity:0.66144198"
       id="path55"
       cx="153.48404"
       cy="96.170502"
       r="15.286097"
       transform="translate(80.36647,81.438501)" /></g></svg>
