<?xml version="1.0" encoding="UTF-8" standalone="no"?>
<!-- Created with Inkscape (http://www.inkscape.org/) -->

<svg
   width="237.06523mm"
   height="237.17479mm"
   viewBox="0 0 237.06523 237.17479"
   version="1.1"
   id="svg1"
   xml:space="preserve"
   sodipodi:docname="SunSetLogo_NEW.svg"
   inkscape:version="1.4.2 (ebf0e940, 2025-05-08)"
   inkscape:export-filename="SunSetLogoWhite.png"
   inkscape:export-xdpi="300"
   inkscape:export-ydpi="300"
   xmlns:inkscape="http://www.inkscape.org/namespaces/inkscape"
   xmlns:sodipodi="http://sodipodi.sourceforge.net/DTD/sodipodi-0.dtd"
   xmlns:xlink="http://www.w3.org/1999/xlink"
   xmlns="http://www.w3.org/2000/svg"
   xmlns:svg="http://www.w3.org/2000/svg"><sodipodi:namedview
     id="namedview1"
     pagecolor="#505050"
     bordercolor="#ffffff"
     borderopacity="1"
     inkscape:showpageshadow="0"
     inkscape:pageopacity="0"
     inkscape:pagecheckerboard="1"
     inkscape:deskcolor="#505050"
     inkscape:document-units="mm"
     showguides="false"
     inkscape:zoom="0.31716012"
     inkscape:cx="249.08554"
     inkscape:cy="422.49953"
     inkscape:window-width="1472"
     inkscape:window-height="811"
     inkscape:window-x="0"
     inkscape:window-y="37"
     inkscape:window-maximized="0"
     inkscape:current-layer="layer1" /><defs
     id="defs1"><inkscape:path-effect
       effect="spiro"
       id="path-effect21"
       is_visible="true"
       lpeversion="1" /><linearGradient
       id="linearGradient3"
       inkscape:collect="always"><stop
         style="stop-color:#e94e77;stop-opacity:1;"
         offset="0.17357513"
         id="stop3" /><stop
         style="stop-color:#f58b3a;stop-opacity:1;"
         offset="0.43861654"
         id="stop7" /><stop
         style="stop-color:#fad037;stop-opacity:1;"
         offset="0.68246305"
         id="stop6" /><stop
         style="stop-color:#ffffff;stop-opacity:1;"
         offset="1"
         id="stop4" /></linearGradient><inkscape:path-effect
       effect="spiro"
       id="path-effect2"
       is_visible="true"
       lpeversion="1" /><inkscape:path-effect
       effect="bspline"
       id="path-effect83"
       is_visible="true"
       lpeversion="1.3"
       weight="33.333333"
       steps="2"
       helper_size="0"
       apply_no_weight="true"
       apply_with_weight="true"
       only_selected="false"
       uniform="false" /><inkscape:path-effect
       effect="powerstroke"
       message=""
       id="path-effect76"
       is_visible="true"
       lpeversion="1.3"
       scale_width="1"
       interpolator_type="CubicBezierJohan"
       interpolator_beta="0.2"
       start_linecap_type="zerowidth"
       end_linecap_type="zerowidth"
       offset_points="4,0.5"
       linejoin_type="extrp_arc"
       miter_limit="4"
       not_jump="false"
       sort_points="true" /><inkscape:path-effect
       effect="bspline"
       id="path-effect75"
       is_visible="true"
       lpeversion="1.3"
       weight="33.333333"
       steps="2"
       helper_size="0"
       apply_no_weight="true"
       apply_with_weight="true"
       only_selected="false"
       uniform="false" /><inkscape:path-effect
       effect="powerstroke"
       message=""
       id="path-effect47"
       is_visible="true"
       lpeversion="1.3"
       scale_width="1"
       interpolator_type="CubicBezierJohan"
       interpolator_beta="0.2"
       start_linecap_type="zerowidth"
       end_linecap_type="zerowidth"
       offset_points="12,0.5"
       linejoin_type="extrp_arc"
       miter_limit="4"
       not_jump="false"
       sort_points="true" /><inkscape:path-effect
       effect="bspline"
       id="path-effect46"
       is_visible="true"
       lpeversion="1.3"
       weight="33.333333"
       steps="2"
       helper_size="0"
       apply_no_weight="true"
       apply_with_weight="true"
       only_selected="false"
       uniform="false" /><inkscape:path-effect
       effect="powerstroke"
       message=""
       id="path-effect32"
       is_visible="true"
       lpeversion="1.3"
       scale_width="1"
       interpolator_type="CubicBezierJohan"
       interpolator_beta="0.2"
       start_linecap_type="zerowidth"
       end_linecap_type="zerowidth"
       offset_points="17,4.9921382"
       linejoin_type="extrp_arc"
       miter_limit="4"
       not_jump="false"
       sort_points="true" /><inkscape:path-effect
       effect="bspline"
       id="path-effect31"
       is_visible="true"
       lpeversion="1.3"
       weight="33.333333"
       steps="2"
       helper_size="0"
       apply_no_weight="true"
       apply_with_weight="true"
       only_selected="false"
       uniform="false" /><inkscape:path-effect
       effect="powerstroke"
       message=""
       id="path-effect29"
       is_visible="true"
       lpeversion="1.3"
       scale_width="1"
       interpolator_type="CubicBezierJohan"
       interpolator_beta="0.2"
       start_linecap_type="zerowidth"
       end_linecap_type="zerowidth"
       offset_points="95,4.9921382"
       linejoin_type="extrp_arc"
       miter_limit="4"
       not_jump="false"
       sort_points="true" /><inkscape:path-effect
       effect="bspline"
       id="path-effect28"
       is_visible="true"
       lpeversion="1.3"
       weight="33.333333"
       steps="2"
       helper_size="0"
       apply_no_weight="true"
       apply_with_weight="true"
       only_selected="false"
       uniform="false" /><inkscape:path-effect
       effect="powerstroke"
       message=""
       id="path-effect27"
       is_visible="true"
       lpeversion="1.3"
       scale_width="1"
       interpolator_type="CubicBezierJohan"
       interpolator_beta="0.2"
       start_linecap_type="zerowidth"
       end_linecap_type="zerowidth"
       offset_points="50,4.9921382"
       linejoin_type="extrp_arc"
       miter_limit="4"
       not_jump="false"
       sort_points="true" /><inkscape:path-effect
       effect="bspline"
       id="path-effect26"
       is_visible="true"
       lpeversion="1.3"
       weight="33.333333"
       steps="2"
       helper_size="0"
       apply_no_weight="true"
       apply_with_weight="true"
       only_selected="false"
       uniform="false" /><inkscape:path-effect
       effect="spiro"
       id="path-effect25"
       is_visible="true"
       lpeversion="1" /><inkscape:path-effect
       effect="powerstroke"
       message=""
       id="path-effect18"
       is_visible="true"
       lpeversion="1.3"
       scale_width="1"
       interpolator_type="CubicBezierJohan"
       interpolator_beta="0.2"
       start_linecap_type="zerowidth"
       end_linecap_type="zerowidth"
       offset_points="41,4.9921382"
       linejoin_type="extrp_arc"
       miter_limit="4"
       not_jump="false"
       sort_points="true" /><inkscape:path-effect
       effect="spiro"
       id="path-effect14"
       is_visible="true"
       lpeversion="1" /><inkscape:path-effect
       effect="spiro"
       id="path-effect13"
       is_visible="true"
       lpeversion="1" /><inkscape:path-effect
       effect="spiro"
       id="path-effect11"
       is_visible="true"
       lpeversion="1" /><inkscape:path-effect
       effect="fill_between_many"
       method="bsplinespiro"
       autoreverse="false"
       close="false"
       join="false"
       linkedpaths="#path18,0,1"
       id="path-effect19"
       is_visible="true"
       lpeversion="0" /><inkscape:path-effect
       effect="fill_between_many"
       method="bsplinespiro"
       autoreverse="false"
       close="false"
       join="false"
       linkedpaths="#path31,0,1"
       id="path-effect33"
       is_visible="true"
       lpeversion="0" /><inkscape:path-effect
       effect="fill_between_many"
       method="bsplinespiro"
       autoreverse="false"
       close="false"
       join="false"
       linkedpaths="#path46,0,1"
       id="path-effect48"
       is_visible="true"
       lpeversion="0" /><inkscape:path-effect
       effect="spiro"
       id="path-effect11-1"
       is_visible="true"
       lpeversion="1" /><inkscape:path-effect
       effect="fill_between_many"
       method="bsplinespiro"
       autoreverse="false"
       close="false"
       join="false"
       linkedpaths="#path75,0,1"
       id="path-effect77"
       is_visible="true"
       lpeversion="0" /><linearGradient
       inkscape:collect="always"
       xlink:href="#linearGradient3"
       id="linearGradient4"
       x1="183.90588"
       y1="93.245117"
       x2="272.21616"
       y2="298.99893"
       gradientUnits="userSpaceOnUse" /></defs><g
     inkscape:groupmode="layer"
     id="layer2"
     inkscape:label="Logo Layers"
     transform="matrix(0.85589177,0,0,0.85589177,-50.115281,-50.06108)"
     style="display:inline"><path
       style="display:none;opacity:1;fill:url(#linearGradient4);fill-opacity:1;stroke:none;stroke-width:1;stroke-dasharray:none;stroke-opacity:0.918495"
       d="m 83.208753,172.05878 c 5.863117,-25.71443 20.756497,-49.27612 41.468677,-65.60443 20.71218,-16.328314 47.09957,-25.310059 73.47223,-25.008494 35.00145,0.400233 69.44117,17.550604 90.8518,45.242594 21.41064,27.69199 29.33935,65.3399 20.9159,99.31499 -7.29704,29.43183 -26.58725,55.70232 -52.48442,71.47622 -25.89718,15.7739 -58.08984,20.86149 -87.58915,13.84221 C 140.34449,304.3026 113.89332,285.26088 97.876006,259.51355 81.858691,233.76622 76.467864,201.62294 83.208753,172.05878 Z"
       id="path1"
       inkscape:label="color"
       transform="translate(0.24790617,-0.88163165)"
       inkscape:original-d="M 83.208753,172.05878 C 7.6392216,154.07723 159.7185,111.88522 198.14966,81.445856 236.58082,51.006496 272.77898,177.70005 309.91736,226.00344 347.05573,274.30682 158.77828,190.04033 83.208753,172.05878 Z"
       inkscape:path-effect="#path-effect2" /><path
       style="display:inline;opacity:1;fill:#ff2c55;fill-opacity:1;stroke:none;stroke-width:1;stroke-dasharray:none;stroke-opacity:0.918495"
       d="m 83.208753,172.05878 c 5.863117,-25.71443 20.756497,-49.27612 41.468677,-65.60443 20.71218,-16.328314 47.09957,-25.310059 73.47223,-25.008494 35.00145,0.400233 69.44117,17.550604 90.8518,45.242594 21.41064,27.69199 29.33935,65.3399 20.9159,99.31499 -7.29704,29.43183 -26.58725,55.70232 -52.48442,71.47622 -25.89718,15.7739 -58.08984,20.86149 -87.58915,13.84221 C 140.34449,304.3026 113.89332,285.26088 97.876006,259.51355 81.858691,233.76622 76.467864,201.62294 83.208753,172.05878 Z"
       id="path20"
       inkscape:label="color"
       transform="translate(0.24790617,-0.88163165)"
       inkscape:original-d="M 83.208753,172.05878 C 7.6392216,154.07723 159.7185,111.88522 198.14966,81.445856 236.58082,51.006496 272.77898,177.70005 309.91736,226.00344 347.05573,274.30682 158.77828,190.04033 83.208753,172.05878 Z"
       inkscape:path-effect="#path-effect21"
       sodipodi:insensitive="true" /><path
       id="path21"
       style="display:none;opacity:1;fill:#fbf5eb;fill-opacity:1;stroke:none;stroke-width:1;stroke-dasharray:none;stroke-opacity:0.918495"
       inkscape:label="shape"
       d="m 198.1496,81.445767 c -26.37266,-0.301564 -52.75982,8.680491 -73.472,25.008813 -20.71218,16.32831 -35.605669,39.88983 -41.468786,65.60426 -6.740889,29.56416 -1.349993,61.70728 14.667322,87.45461 16.017314,25.74733 42.468394,44.78893 71.967704,51.80821 29.4993,7.01927 61.69179,1.93185 87.58897,-13.84205 25.89717,-15.7739 45.18761,-42.04443 52.48465,-71.47626 8.42345,-33.97509 0.4946,-71.62288 -20.91604,-99.31487 C 267.59078,98.996504 233.15105,81.846 198.1496,81.445767 Z m 6.93395,17.637167 c 15.3372,1.031506 25.83637,4.162956 39.62187,11.816846 9.19948,5.10768 14.88158,9.43617 22.95002,17.48369 8.69224,8.66971 13.18815,14.98787 19.24172,27.04124 l 0.95498,1.90221 -2.04329,4.0597 c -3.6465,7.2456 -8.66497,15.61755 -12.25558,20.44423 -2.43108,3.26799 -7.04285,8.00366 -10.29446,10.57197 -6.57504,5.19333 -14.16156,8.90579 -21.5651,10.55181 -4.39792,0.97779 -7.99821,1.26957 -12.43438,1.00769 -4.72782,-0.2791 -8.60767,-1.09657 -12.58476,-2.651 -2.65626,-1.03818 -8.17003,-3.72379 -10.56835,-5.14749 -3.11019,-1.84629 -8.52946,-5.77364 -14.04927,-10.18181 -6.50652,-5.19616 -14.7596,-11.17839 -22.84873,-16.56178 -10.39967,-6.92106 -16.66062,-10.60389 -23.26783,-13.68598 -12.1819,-5.68254 -20.34557,-7.97476 -31.19448,-8.75864 l -3.69073,-0.26665 1.24333,-1.78129 c 6.3822,-9.14049 13.44537,-16.92636 21.28036,-23.45852 6.37545,-5.31532 16.06083,-11.38498 23.042,-14.43994 7.96243,-3.48437 19.3047,-6.47973 28.81271,-7.609356 4.06492,-0.482945 14.75289,-0.666283 19.64997,-0.33693 z m 30.02504,63.660716 c -0.69722,-0.0379 -1.44864,-0.0343 -2.29082,0.003 -2.89747,0.12697 -4.52602,0.54407 -6.77375,1.7353 -3.75167,1.98826 -6.71172,5.8007 -7.86257,10.12703 -0.58968,2.21677 -0.53379,6.06149 0.11886,8.1597 2.01448,6.47636 6.98606,10.71847 13.45654,11.48302 1.45043,0.17139 2.05996,0.15742 4.42506,-0.10386 1.71981,-0.19 4.45329,-1.25718 6.20634,-2.4226 3.05135,-2.02854 5.30832,-5.08386 6.4456,-8.72608 0.43955,-1.4077 0.51524,-2.10306 0.50281,-4.63692 -0.0128,-2.61267 -0.0871,-3.19824 -0.60151,-4.74648 -0.84033,-2.52906 -1.99969,-4.37984 -4.02043,-6.41822 -1.41397,-1.42631 -2.17123,-1.98452 -3.79512,-2.79724 -2.1142,-1.05812 -3.71936,-1.54248 -5.81101,-1.65623 z M 99.14996,176.85648 c 0.490729,-0.49073 20.15529,1.0991 25.06927,2.02675 5.23933,0.98907 19.10207,5.33384 26.89397,8.42894 4.3878,1.74294 21.47974,10.12497 25.20363,12.35997 1.90392,1.1427 6.16724,3.92995 9.47384,6.19446 18.13955,12.42274 27.87351,17.0695 40.76082,19.45772 1.99974,0.37058 5.2116,0.56483 9.34723,0.56483 16.64186,0 29.79307,-5.08201 41.95299,-16.2109 5.78126,-5.29107 12.34988,-13.22794 16.07396,-19.4231 l 1.80557,-3.00395 0.23461,2.24585 c 0.35607,3.4067 0.28024,13.84346 -0.13332,18.35496 -1.84309,20.1059 -10.88085,40.73359 -24.54631,56.02397 l -2.1978,2.45876 -1.4552,-2.78846 c -3.21515,-6.15989 -11.07586,-12.25461 -18.89911,-14.65337 -5.30528,-1.6267 -8.73511,-2.01871 -17.75912,-2.03037 -9.34734,-0.0121 -12.01388,0.32727 -21.3186,2.71353 -19.48933,4.99818 -42.02605,16.07843 -62.36518,30.66221 -1.6345,1.17199 -3.0502,2.13062 -3.14658,2.13062 -0.0964,0 -1.71082,-1.16895 -3.58738,-2.59777 -9.5998,-7.30932 -19.28747,-16.67987 -24.3644,-23.56755 -9.63148,-13.06667 -15.07223,-27.17279 -17.525031,-45.43651 -1.004182,-7.47721 -1.111903,-21.47537 -0.222725,-28.91865 0.319897,-2.67784 0.637069,-4.92414 0.704866,-4.99194 z m 138.06599,87.9135 c 1.2063,0.0129 2.28199,0.0863 3.28817,0.18913 2.01237,0.20565 3.74559,0.52887 5.33198,0.99891 1.58639,0.47004 3.02567,1.08706 4.20077,1.6893 1.17511,0.60224 2.08588,1.1897 3.04065,1.90945 0.95477,0.71975 1.95357,1.57146 2.90835,2.54093 0.95477,0.96946 1.86554,2.05662 2.55591,2.89388 0.69037,0.83725 1.16036,1.42473 1.63039,2.01228 -0.99883,0.79319 -1.99735,1.58624 -3.48092,2.67322 -1.48358,1.08697 -3.45186,2.46789 -5.74332,3.86333 -2.29146,1.39544 -4.90632,2.80518 -7.59437,4.14186 -2.68805,1.33669 -5.4495,2.59993 -8.06411,3.70159 -2.6146,1.10166 -5.08191,2.04194 -8.1225,2.99671 -3.04059,0.95478 -6.65433,1.92424 -10.04745,2.6293 -3.39311,0.70506 -6.56533,1.14549 -9.6206,1.46864 -3.05527,0.32316 -5.99339,0.52903 -8.90178,0.5731 -2.90838,0.0441 -5.78687,-0.0735 -8.3721,-0.30851 -2.58523,-0.23502 -4.87686,-0.58748 -7.56491,-1.04283 -2.68806,-0.45536 -5.77255,-1.01383 -8.31371,-1.572 -2.54116,-0.55817 -4.53889,-1.11615 -6.53655,-1.67432 3.52528,-2.23268 7.05062,-4.46544 11.58948,-7.22694 4.53885,-2.76151 10.09114,-6.05179 15.2616,-8.85735 5.17046,-2.80555 9.95906,-5.12642 14.52727,-7.02127 4.56822,-1.89486 8.91573,-3.36333 12.99921,-4.42092 4.08349,-1.05759 7.90272,-1.70426 10.95799,-1.98334 1.52763,-0.13954 2.86425,-0.18701 4.07055,-0.17415 z"
       transform="translate(0.24790617,-0.88163165)"
       sodipodi:insensitive="true" /><path
       id="path11"
       style="display:inline;opacity:1;fill:#ffffff;fill-opacity:1;stroke:none;stroke-width:4.2;stroke-dasharray:none;stroke-opacity:1"
       inkscape:label="shape"
       d="m 198.1496,81.445767 c -26.37266,-0.301564 -52.75982,8.680491 -73.472,25.008813 -20.71218,16.32831 -35.605669,39.88983 -41.468786,65.60426 -6.740889,29.56416 -1.349993,61.70728 14.667322,87.45461 16.017314,25.74733 42.468394,44.78893 71.967704,51.80821 29.4993,7.01927 61.69179,1.93185 87.58897,-13.84205 25.89717,-15.7739 45.18761,-42.04443 52.48465,-71.47626 8.42345,-33.97509 0.4946,-71.62288 -20.91604,-99.31487 C 267.59078,98.996504 233.15105,81.846 198.1496,81.445767 Z m 6.93395,17.637167 c 15.3372,1.031506 25.83637,4.162956 39.62187,11.816846 9.19948,5.10768 14.88158,9.43617 22.95002,17.48369 8.69224,8.66971 13.18815,14.98787 19.24172,27.04124 l 0.95498,1.90221 -2.04329,4.0597 c -3.6465,7.2456 -8.66497,15.61755 -12.25558,20.44423 -2.43108,3.26799 -7.04285,8.00366 -10.29446,10.57197 -6.57504,5.19333 -14.16156,8.90579 -21.5651,10.55181 -4.39792,0.97779 -7.99821,1.26957 -12.43438,1.00769 -4.72782,-0.2791 -8.60767,-1.09657 -12.58476,-2.651 -2.65626,-1.03818 -8.17003,-3.72379 -10.56835,-5.14749 -3.11019,-1.84629 -8.52946,-5.77364 -14.04927,-10.18181 -6.50652,-5.19616 -14.7596,-11.17839 -22.84873,-16.56178 -10.39967,-6.92106 -16.66062,-10.60389 -23.26783,-13.68598 -12.1819,-5.68254 -20.34557,-7.97476 -31.19448,-8.75864 l -3.69073,-0.26665 1.24333,-1.78129 c 6.3822,-9.14049 13.44537,-16.92636 21.28036,-23.45852 6.37545,-5.31532 16.06083,-11.38498 23.042,-14.43994 7.96243,-3.48437 19.3047,-6.47973 28.81271,-7.609356 4.06492,-0.482945 14.75289,-0.666283 19.64997,-0.33693 z m 30.02504,63.660716 c -0.69722,-0.0379 -1.44864,-0.0343 -2.29082,0.003 -2.89747,0.12697 -4.52602,0.54407 -6.77375,1.7353 -3.75167,1.98826 -6.71172,5.8007 -7.86257,10.12703 -0.58968,2.21677 -0.53379,6.06149 0.11886,8.1597 2.01448,6.47636 6.98606,10.71847 13.45654,11.48302 1.45043,0.17139 2.05996,0.15742 4.42506,-0.10386 1.71981,-0.19 4.45329,-1.25718 6.20634,-2.4226 3.05135,-2.02854 5.30832,-5.08386 6.4456,-8.72608 0.43955,-1.4077 0.51524,-2.10306 0.50281,-4.63692 -0.0128,-2.61267 -0.0871,-3.19824 -0.60151,-4.74648 -0.84033,-2.52906 -1.99969,-4.37984 -4.02043,-6.41822 -1.41397,-1.42631 -2.17123,-1.98452 -3.79512,-2.79724 -2.1142,-1.05812 -3.71936,-1.54248 -5.81101,-1.65623 z M 99.14996,176.85648 c 0.490729,-0.49073 20.15529,1.0991 25.06927,2.02675 5.23933,0.98907 19.10207,5.33384 26.89397,8.42894 4.3878,1.74294 21.47974,10.12497 25.20363,12.35997 1.90392,1.1427 6.16724,3.92995 9.47384,6.19446 18.13955,12.42274 27.87351,17.0695 40.76082,19.45772 1.99974,0.37058 5.2116,0.56483 9.34723,0.56483 16.64186,0 29.79307,-5.08201 41.95299,-16.2109 5.78126,-5.29107 12.34988,-13.22794 16.07396,-19.4231 l 1.80557,-3.00395 0.23461,2.24585 c 0.35607,3.4067 0.28024,13.84346 -0.13332,18.35496 -1.84309,20.1059 -10.88085,40.73359 -24.54631,56.02397 l -2.1978,2.45876 -1.4552,-2.78846 c -3.21515,-6.15989 -11.07586,-12.25461 -18.89911,-14.65337 -5.30528,-1.6267 -8.73511,-2.01871 -17.75912,-2.03037 -9.34734,-0.0121 -12.01388,0.32727 -21.3186,2.71353 -19.48933,4.99818 -42.02605,16.07843 -62.36518,30.66221 -1.6345,1.17199 -3.0502,2.13062 -3.14658,2.13062 -0.0964,0 -1.71082,-1.16895 -3.58738,-2.59777 -9.5998,-7.30932 -19.28747,-16.67987 -24.3644,-23.56755 -9.63148,-13.06667 -15.07223,-27.17279 -17.525031,-45.43651 -1.004182,-7.47721 -1.111903,-21.47537 -0.222725,-28.91865 0.319897,-2.67784 0.637069,-4.92414 0.704866,-4.99194 z m 138.06599,87.9135 c 1.2063,0.0129 2.28199,0.0863 3.28817,0.18913 2.01237,0.20565 3.74559,0.52887 5.33198,0.99891 1.58639,0.47004 3.02567,1.08706 4.20077,1.6893 1.17511,0.60224 2.08588,1.1897 3.04065,1.90945 0.95477,0.71975 1.95357,1.57146 2.90835,2.54093 0.95477,0.96946 1.86554,2.05662 2.55591,2.89388 0.69037,0.83725 1.16036,1.42473 1.63039,2.01228 -0.99883,0.79319 -1.99735,1.58624 -3.48092,2.67322 -1.48358,1.08697 -3.45186,2.46789 -5.74332,3.86333 -2.29146,1.39544 -4.90632,2.80518 -7.59437,4.14186 -2.68805,1.33669 -5.4495,2.59993 -8.06411,3.70159 -2.6146,1.10166 -5.08191,2.04194 -8.1225,2.99671 -3.04059,0.95478 -6.65433,1.92424 -10.04745,2.6293 -3.39311,0.70506 -6.56533,1.14549 -9.6206,1.46864 -3.05527,0.32316 -5.99339,0.52903 -8.90178,0.5731 -2.90838,0.0441 -5.78687,-0.0735 -8.3721,-0.30851 -2.58523,-0.23502 -4.87686,-0.58748 -7.56491,-1.04283 -2.68806,-0.45536 -5.77255,-1.01383 -8.31371,-1.572 -2.54116,-0.55817 -4.53889,-1.11615 -6.53655,-1.67432 3.52528,-2.23268 7.05062,-4.46544 11.58948,-7.22694 4.53885,-2.76151 10.09114,-6.05179 15.2616,-8.85735 5.17046,-2.80555 9.95906,-5.12642 14.52727,-7.02127 4.56822,-1.89486 8.91573,-3.36333 12.99921,-4.42092 4.08349,-1.05759 7.90272,-1.70426 10.95799,-1.98334 1.52763,-0.13954 2.86425,-0.18701 4.07055,-0.17415 z"
       transform="translate(0.24790617,-0.88163165)" /></g><g
     inkscape:groupmode="layer"
     id="layer1"
     inkscape:label="Text" /></svg>
